<svg width="165" height="61" viewBox="0 0 165 61" fill="none" xmlns="http://www.w3.org/2000/svg">
<path d="M18.864 48.576C15.76 48.576 13.424 47.648 11.856 45.792C10.288 43.904 9.504 41.44 9.504 38.4V20.448H2.208V14.496H17.136V38.688C17.136 40.096 17.536 41.072 18.336 41.616C19.136 42.16 19.984 42.432 20.88 42.432C21.424 42.432 21.968 42.368 22.512 42.24C23.088 42.112 23.744 41.92 24.48 41.664L26.16 47.328C24.912 47.712 23.76 48.016 22.704 48.24C21.68 48.464 20.4 48.576 18.864 48.576ZM36.4612 48.576C34.8292 48.576 33.4372 48.24 32.2852 47.568C31.1332 46.896 30.2372 46.016 29.5972 44.928C28.9892 43.84 28.6852 42.624 28.6852 41.28C28.6852 38.624 29.8532 36.592 32.1892 35.184C34.5572 33.744 38.5252 32.864 44.0932 32.544C43.9972 31.904 43.7572 31.376 43.3733 30.96C42.9893 30.512 42.4453 30.176 41.7412 29.952C41.0692 29.696 40.2372 29.568 39.2453 29.568C38.5412 29.568 37.8052 29.664 37.0372 29.856C36.3012 30.016 35.5332 30.256 34.7332 30.576C33.9652 30.896 33.1172 31.28 32.1892 31.728L29.4532 26.688C30.6372 26.048 31.8372 25.488 33.0532 25.008C34.2692 24.528 35.5172 24.16 36.7972 23.904C38.0772 23.648 39.3892 23.52 40.7332 23.52C43.0052 23.52 44.9573 23.92 46.5893 24.72C48.2213 25.488 49.4853 26.688 50.3813 28.32C51.2773 29.92 51.7253 31.984 51.7253 34.512V48H45.4852L44.9572 45.408H44.7652C43.5812 46.304 42.2852 47.056 40.8772 47.664C39.4692 48.272 37.9972 48.576 36.4612 48.576ZM38.9093 42.672C39.9332 42.672 40.8612 42.48 41.6933 42.096C42.5572 41.68 43.3572 41.184 44.0932 40.608V37.152C41.9492 37.216 40.2852 37.424 39.1012 37.776C37.9172 38.096 37.1012 38.512 36.6532 39.024C36.2052 39.504 35.9812 40.048 35.9812 40.656C35.9812 41.104 36.0932 41.488 36.3172 41.808C36.5732 42.096 36.9092 42.32 37.3252 42.48C37.7732 42.608 38.3012 42.672 38.9093 42.672ZM62.3625 48.576C60.7305 48.576 59.3385 48.24 58.1865 47.568C57.0345 46.896 56.1385 46.016 55.4985 44.928C54.8905 43.84 54.5865 42.624 54.5865 41.28C54.5865 38.624 55.7545 36.592 58.0905 35.184C60.4585 33.744 64.4265 32.864 69.9945 32.544C69.8985 31.904 69.6585 31.376 69.2745 30.96C68.8905 30.512 68.3465 30.176 67.6425 29.952C66.9705 29.696 66.1385 29.568 65.1465 29.568C64.4425 29.568 63.7065 29.664 62.9385 29.856C62.2025 30.016 61.4345 30.256 60.6345 30.576C59.8665 30.896 59.0185 31.28 58.0905 31.728L55.3545 26.688C56.5385 26.048 57.7385 25.488 58.9545 25.008C60.1705 24.528 61.4185 24.16 62.6985 23.904C63.9785 23.648 65.2905 23.52 66.6345 23.52C68.9065 23.52 70.8585 23.92 72.4905 24.72C74.1225 25.488 75.3865 26.688 76.2825 28.32C77.1785 29.92 77.6265 31.984 77.6265 34.512V48H71.3865L70.8585 45.408H70.6665C69.4825 46.304 68.1865 47.056 66.7785 47.664C65.3705 48.272 63.8985 48.576 62.3625 48.576ZM64.8105 42.672C65.8345 42.672 66.7625 42.48 67.5945 42.096C68.4585 41.68 69.2585 41.184 69.9945 40.608V37.152C67.8505 37.216 66.1865 37.424 65.0025 37.776C63.8185 38.096 63.0025 38.512 62.5545 39.024C62.1065 39.504 61.8825 40.048 61.8825 40.656C61.8825 41.104 61.9945 41.488 62.2185 41.808C62.4745 42.096 62.8105 42.32 63.2265 42.48C63.6745 42.608 64.2025 42.672 64.8105 42.672Z" fill="url(#paint0_linear_187_133)"/>
<path d="M136.804 40.2799C136.804 39.6346 136.76 39.0186 136.672 38.4319C136.584 37.8452 136.481 37.3172 136.364 36.8479L131.04 38.0799C131.128 38.3732 131.187 38.6519 131.216 38.9159C131.275 39.2092 131.304 39.4732 131.304 39.7079C131.304 40.9399 131.069 41.8932 130.6 42.5679C130.131 43.2426 129.529 43.7412 128.796 44.0639L127.74 44.4599L106.488 35.1319V42.0399L115.42 45.4279C116.447 45.8092 117.517 46.1759 118.632 46.5279C119.717 46.8799 120.847 47.2026 122.02 47.4959V47.6719C120.935 47.9652 119.835 48.2732 118.72 48.5959C117.576 48.9479 116.476 49.2999 115.42 49.6519L106.488 52.5559V59.1559L128.356 50.7519C130.233 50.0186 131.803 49.1972 133.064 48.2879C134.325 47.3786 135.264 46.2786 135.88 44.9879C136.496 43.7266 136.804 42.1572 136.804 40.2799Z" fill="url(#paint1_linear_187_133)"/>
<path d="M150.064 48.076C147.984 48.076 145.888 47.724 143.776 47.02C141.696 46.284 139.904 45.42 138.4 44.428L141.616 39.676C143.088 40.572 144.624 41.26 146.224 41.74C147.856 42.22 149.488 42.46 151.12 42.46C152.304 42.46 153.152 42.3 153.664 41.98C154.208 41.628 154.48 41.196 154.48 40.684C154.48 40.396 154.384 40.14 154.192 39.916C154.032 39.692 153.744 39.5 153.328 39.34C152.944 39.148 152.384 38.972 151.648 38.812C150.944 38.652 150.048 38.444 148.96 38.188C145.696 37.484 143.36 36.508 141.952 35.26C140.576 34.012 139.888 32.476 139.888 30.652C139.888 28.348 140.88 26.508 142.864 25.132C144.88 23.724 147.616 23.02 151.072 23.02C153.28 23.02 155.264 23.372 157.024 24.076C158.784 24.78 160.304 25.532 161.584 26.332L158.176 30.892C156.928 30.156 155.632 29.596 154.288 29.212C152.944 28.828 151.632 28.636 150.352 28.636C149.744 28.636 149.216 28.7 148.768 28.828C148.352 28.956 148.032 29.148 147.808 29.404C147.584 29.66 147.472 29.948 147.472 30.268C147.472 30.844 147.856 31.26 148.624 31.516C149.424 31.74 150.784 32.092 152.704 32.572C155.136 33.116 157.024 33.74 158.368 34.444C159.744 35.116 160.704 35.932 161.248 36.892C161.792 37.82 162.064 38.94 162.064 40.252C162.064 41.724 161.6 43.052 160.672 44.236C159.776 45.42 158.432 46.364 156.64 47.068C154.88 47.74 152.688 48.076 150.064 48.076Z" fill="url(#paint2_linear_187_133)"/>
<path d="M81.36 48V43.92L93.072 30.096H82.752V24.096H103.728V28.176L91.92 42H104.016V48H81.36Z" fill="url(#paint3_linear_187_133)"/>
<defs>
<linearGradient id="paint0_linear_187_133" x1="39" y1="1" x2="39" y2="61" gradientUnits="userSpaceOnUse">
<stop stop-color="#1FBAC0"/>
<stop offset="0.385" stop-color="#61D3AB"/>
<stop offset="1" stop-color="#9CEE8D"/>
</linearGradient>
<linearGradient id="paint1_linear_187_133" x1="85.3999" y1="47.3999" x2="140.4" y2="47.3999" gradientUnits="userSpaceOnUse">
<stop stop-color="#1FBAC0"/>
<stop offset="0.445" stop-color="#61D3AB"/>
<stop offset="1" stop-color="#9CEE8D"/>
</linearGradient>
<linearGradient id="paint2_linear_187_133" x1="150.5" y1="0.5" x2="150.5" y2="60.5" gradientUnits="userSpaceOnUse">
<stop stop-color="#1FBAC0"/>
<stop offset="0.385" stop-color="#61D3AB"/>
<stop offset="1" stop-color="#9CEE8D"/>
</linearGradient>
<linearGradient id="paint3_linear_187_133" x1="92.5" y1="1" x2="92.5" y2="61" gradientUnits="userSpaceOnUse">
<stop stop-color="#1FBAC0"/>
<stop offset="0.385" stop-color="#61D3AB"/>
<stop offset="1" stop-color="#9CEE8D"/>
</linearGradient>
</defs>
</svg>
